<?xml version="1.0" encoding="UTF-8" standalone="no"?>
<!-- Created with Inkscape (http://www.inkscape.org/) -->

<svg
   width="11.014593mm"
   height="9.6710186mm"
   viewBox="0 0 11.014593 9.6710186"
   version="1.1"
   id="svg1"
   xml:space="preserve"
   xmlns="http://www.w3.org/2000/svg"
   xmlns:svg="http://www.w3.org/2000/svg"><defs
     id="defs1" /><g
     id="layer1"
     transform="translate(-50.623666,-36.406516)"><g
       id="g8"
       transform="matrix(0.14210437,0,0,0.14210437,32.471839,35.152435)"><path
         d="m 138.25264,9.7858736 c -2.88399,0.0577 -6.61923,0.7898044 -8.62686,3.8354254 -4.48786,6.80815 0.42581,14.374316 0.42581,14.374316 0,0 1.32269,2.586808 4.21525,4.920118 3.31809,2.67658 7.53731,4.75427 11.3006,4.57181 2.62697,-0.1274 3.07919,-0.25323 5.5609,0.0263 1.44286,0.16255 2.65287,1.50177 3.68298,2.48357 1.02966,0.98137 1.87999,1.60507 1.87999,1.60507 l 7.23522,7.95869 c 0,0 14.7742,16.79091 18.45778,21.80642 3.23884,4.40996 4.79661,4.66845 4.79661,4.66845 0,0 5.49966,0.44753 6.65075,-4.15685 1.15109,-4.60437 -3.38945,-6.7784 -3.38945,-6.7784 -10.22479,-8.30806 -10.31798,-8.18317 -21.75836,-18.23299 -1.90305,-1.67174 -8.71822,-8.26786 -12.12588,-12.1481 -2.75304,-3.13483 4.4286,-15.096777 -14.33401,-24.615552 0,0 -1.72823,-0.3632044 -3.97133,-0.3183274 z m -6.97477,9.3430994 c 0,0 2.57098,6.350164 5.56194,9.450586 3.79166,3.930424 9.31519,5.381064 9.31519,5.381064 0,0 -5.7148,0.99992 -10.71666,-4.114991 -5.14178,-5.257992 -4.16047,-10.716659 -4.16047,-10.716659 z"
         style="opacity:1;fill:#99bc85;fill-opacity:1;stroke-width:0.264583"
         id="path6" /><path
         style="opacity:1;fill:#99bc85;fill-opacity:1;stroke-width:0.264583"
         d="m 145.70294,76.059763 c 0,0 -3.61754,2.3514 -6.96376,-0.90439 -3.34622,-3.25578 -0.54263,-7.0542 -0.54263,-7.0542 l 22.88094,-19.12774 3.84363,4.11495 z"
         id="path7" /><path
         style="opacity:1;fill:#99bc85;fill-opacity:1;stroke-width:0.264583"
         d="m 167.32431,43.293923 3.5492,3.26144 6.90656,-6.90657 c 0,0 2.88691,-1.58203 4.06081,-1.50282 1.6775,0.1132 6.4909,0.15988 6.4909,0.15988 0,0 1.63071,-0.70345 2.71785,-2.01442 1.08715,-1.31096 14.13288,-16.083337 14.13288,-16.083337 0,0 0.2558,-1.662692 -0.2558,-1.758617 -0.5116,-0.09592 -0.41567,-0.863319 -2.11034,-0.09592 -1.69467,0.767398 -15.18805,15.156064 -15.18805,15.156064 0,0 -1.50281,0.95925 -2.04639,0.15988 -0.54357,-0.79937 -1.63311,-1.36846 -0.22382,-2.74984 10.15907,-9.957894 9.20344,-8.758732 15.16967,-15.243754 0.60656,-0.6593 -0.16418,-1.878782 -0.17347,-1.894752 -0.51112,-0.879055 -2.0112,-0.343962 -2.0112,-0.343962 l -15.19126,15.116338 c 0,0 -1.47084,1.37492 -2.27022,0.511595 -0.79937,-0.863319 -0.73542,-1.726639 -0.73542,-1.726639 0,0 0.5116,-1.342943 0.83135,-1.374918 0.31975,-0.03198 14.8683,-14.80435 14.8683,-14.80435 0,0 0.47962,-1.6626894 -0.0959,-1.8865134 -0.57555,-0.223825 -1.59874,-0.447649 -1.59874,-0.447649 L 178.3876,22.382383 c 0,0 -2.68589,2.430087 -2.55799,2.909711 0.1279,0.479623 -0.032,7.801859 -0.032,7.801859 0,0 -0.83135,3.00563 -1.53479,3.29341 -0.70345,0.28777 -6.93854,6.90656 -6.93854,6.90656 z"
         id="path8" /></g></g></svg>
