<?xml version="1.0" encoding="UTF-8" standalone="no"?>
<!-- Created with Inkscape (http://www.inkscape.org/) -->

<svg
   width="43.857689mm"
   height="9.6710186mm"
   viewBox="0 0 43.857689 9.6710186"
   version="1.1"
   id="svg1"
   xml:space="preserve"
   xmlns="http://www.w3.org/2000/svg"
   xmlns:svg="http://www.w3.org/2000/svg"><defs
     id="defs1" /><g
     id="layer1"
     transform="translate(-17.780567,-36.406516)"><g
       id="g8"
       transform="matrix(0.14210437,0,0,0.14210437,32.471839,35.152435)"><path
         d="m 138.25264,9.7858736 c -2.88399,0.0577 -6.61923,0.7898044 -8.62686,3.8354254 -4.48786,6.80815 0.42581,14.374316 0.42581,14.374316 0,0 1.32269,2.586808 4.21525,4.920118 3.31809,2.67658 7.53731,4.75427 11.3006,4.57181 2.62697,-0.1274 3.07919,-0.25323 5.5609,0.0263 1.44286,0.16255 2.65287,1.50177 3.68298,2.48357 1.02966,0.98137 1.87999,1.60507 1.87999,1.60507 l 7.23522,7.95869 c 0,0 14.7742,16.79091 18.45778,21.80642 3.23884,4.40996 4.79661,4.66845 4.79661,4.66845 0,0 5.49966,0.44753 6.65075,-4.15685 1.15109,-4.60437 -3.38945,-6.7784 -3.38945,-6.7784 -10.22479,-8.30806 -10.31798,-8.18317 -21.75836,-18.23299 -1.90305,-1.67174 -8.71822,-8.26786 -12.12588,-12.1481 -2.75304,-3.13483 4.4286,-15.096777 -14.33401,-24.615552 0,0 -1.72823,-0.3632044 -3.97133,-0.3183274 z m -6.97477,9.3430994 c 0,0 2.57098,6.350164 5.56194,9.450586 3.79166,3.930424 9.31519,5.381064 9.31519,5.381064 0,0 -5.7148,0.99992 -10.71666,-4.114991 -5.14178,-5.257992 -4.16047,-10.716659 -4.16047,-10.716659 z"
         style="opacity:1;fill:#99bc85;fill-opacity:1;stroke-width:0.264583"
         id="path6" /><path
         style="opacity:1;fill:#99bc85;fill-opacity:1;stroke-width:0.264583"
         d="m 145.70294,76.059763 c 0,0 -3.61754,2.3514 -6.96376,-0.90439 -3.34622,-3.25578 -0.54263,-7.0542 -0.54263,-7.0542 l 22.88094,-19.12774 3.84363,4.11495 z"
         id="path7" /><path
         style="opacity:1;fill:#99bc85;fill-opacity:1;stroke-width:0.264583"
         d="m 167.32431,43.293923 3.5492,3.26144 6.90656,-6.90657 c 0,0 2.88691,-1.58203 4.06081,-1.50282 1.6775,0.1132 6.4909,0.15988 6.4909,0.15988 0,0 1.63071,-0.70345 2.71785,-2.01442 1.08715,-1.31096 14.13288,-16.083337 14.13288,-16.083337 0,0 0.2558,-1.662692 -0.2558,-1.758617 -0.5116,-0.09592 -0.41567,-0.863319 -2.11034,-0.09592 -1.69467,0.767398 -15.18805,15.156064 -15.18805,15.156064 0,0 -1.50281,0.95925 -2.04639,0.15988 -0.54357,-0.79937 -1.63311,-1.36846 -0.22382,-2.74984 10.15907,-9.957894 9.20344,-8.758732 15.16967,-15.243754 0.60656,-0.6593 -0.16418,-1.878782 -0.17347,-1.894752 -0.51112,-0.879055 -2.0112,-0.343962 -2.0112,-0.343962 l -15.19126,15.116338 c 0,0 -1.47084,1.37492 -2.27022,0.511595 -0.79937,-0.863319 -0.73542,-1.726639 -0.73542,-1.726639 0,0 0.5116,-1.342943 0.83135,-1.374918 0.31975,-0.03198 14.8683,-14.80435 14.8683,-14.80435 0,0 0.47962,-1.6626894 -0.0959,-1.8865134 -0.57555,-0.223825 -1.59874,-0.447649 -1.59874,-0.447649 L 178.3876,22.382383 c 0,0 -2.68589,2.430087 -2.55799,2.909711 0.1279,0.479623 -0.032,7.801859 -0.032,7.801859 0,0 -0.83135,3.00563 -1.53479,3.29341 -0.70345,0.28777 -6.93854,6.90656 -6.93854,6.90656 z"
         id="path8" /></g><path
       style="font-weight:300;font-stretch:semi-condensed;font-size:7.05556px;font-family:'Noto Sans Thai';-inkscape-font-specification:'Noto Sans Thai, Light Semi-Condensed';fill:#99bc85;stroke-width:0.264583"
       d="m 21.181348,43.438753 q 0,1.270001 -0.578556,1.919113 -0.578556,0.649111 -1.70039,0.649111 h -1.121834 v -5.03767 h 1.227667 q 1.06539,0 1.615723,0.627945 0.55739,0.627945 0.55739,1.841501 z m -0.423334,0.01411 q 0,-1.051278 -0.4445,-1.587501 -0.437445,-0.536222 -1.361723,-0.536222 h -0.769056 v 4.318003 h 0.691444 q 0.952501,0 1.418168,-0.550334 0.465667,-0.550334 0.465667,-1.643946 z m 2.794005,-1.262945 q 0.23989,0 0.437445,0.0635 l -0.0635,0.373945 q -0.09172,-0.02822 -0.1905,-0.04233 -0.09878,-0.02117 -0.204611,-0.02117 -0.303389,0 -0.522112,0.1905 -0.218722,0.183444 -0.338667,0.508 -0.119944,0.3175 -0.119944,0.719667 v 2.024946 h -0.388056 v -3.753558 h 0.3175 l 0.04939,0.719667 h 0.02117 q 0.127,-0.3175 0.373945,-0.550333 0.246944,-0.232834 0.627944,-0.232834 z m 2.236616,-0.0071 q 0.437445,0 0.726723,0.225777 0.296333,0.225778 0.437445,0.613834 0.148166,0.381 0.148166,0.867834 v 0.282222 h -2.370668 q 0.0071,0.762001 0.310445,1.164168 0.303389,0.395111 0.881945,0.395111 0.289278,0 0.522111,-0.05644 0.239889,-0.0635 0.508001,-0.197556 v 0.359834 q -0.239889,0.119944 -0.49389,0.176389 -0.246944,0.0635 -0.557389,0.0635 -0.783167,0 -1.178278,-0.522112 -0.388056,-0.522111 -0.388056,-1.404056 0,-0.585612 0.162278,-1.030112 0.169333,-0.4445 0.493889,-0.691445 0.324556,-0.246944 0.797278,-0.246944 z m -0.0071,0.338666 q -0.451556,0 -0.726723,0.338667 -0.268111,0.331612 -0.310445,0.987779 h 1.961446 q 0,-0.578556 -0.225778,-0.952501 -0.218722,-0.373945 -0.6985,-0.373945 z m 3.414893,-0.331611 q 0.585611,0 0.860778,0.310445 0.275167,0.310444 0.275167,0.980723 v 2.52589 h -0.303389 l -0.0635,-0.613834 h -0.01411 q -0.169334,0.303389 -0.43039,0.49389 -0.254,0.1905 -0.712611,0.1905 -0.500945,0 -0.776112,-0.289278 -0.268111,-0.289278 -0.268111,-0.762001 0,-0.564445 0.402167,-0.853723 0.409222,-0.296333 1.185334,-0.338666 l 0.592667,-0.03528 V 43.52342 q 0,-0.550334 -0.197556,-0.776112 -0.1905,-0.225778 -0.578556,-0.225778 -0.232833,0 -0.465666,0.07056 -0.232834,0.0635 -0.472723,0.1905 l -0.127,-0.310445 q 0.232833,-0.127 0.515056,-0.204611 0.282222,-0.07761 0.578556,-0.07761 z m 0.197555,1.940279 q -1.220611,0.07056 -1.220611,0.896056 0,0.352778 0.1905,0.536223 0.1905,0.183444 0.522111,0.183444 0.515056,0 0.783167,-0.338667 0.268112,-0.338666 0.275167,-0.931333 V 44.10193 Z m 5.545669,-1.947334 q 0.500945,0 0.776112,0.310444 0.282222,0.310445 0.282222,0.980723 v 2.532946 H 35.60292 v -2.504724 q 0,-0.508 -0.197556,-0.740834 -0.197556,-0.232833 -0.536222,-0.232833 -0.465667,0 -0.712612,0.3175 -0.246945,0.3175 -0.246945,0.952501 v 2.20839 H 33.52153 V 43.52342 q 0,-0.529167 -0.197556,-0.762001 -0.197556,-0.232833 -0.536223,-0.232833 -0.479778,0 -0.719667,0.352778 -0.239889,0.352778 -0.239889,0.980723 v 2.14489 h -0.395111 v -3.753558 h 0.3175 l 0.04939,0.599723 h 0.02822 q 0.127,-0.275167 0.373945,-0.472723 0.254,-0.197555 0.656167,-0.197555 0.381,0 0.620889,0.183444 0.246945,0.183445 0.338667,0.508 h 0.02822 q 0.148167,-0.324555 0.416278,-0.508 0.275167,-0.183444 0.677334,-0.183444 z m 2.631725,3.824113 H 37.16921 v -5.03767 h 2.455335 v 0.359834 h -2.053168 v 2.08139 H 39.5046 v 0.366889 h -1.933223 z m 5.524507,-1.883834 q 0,0.903111 -0.381,1.432278 -0.381001,0.522112 -1.121834,0.522112 -0.712612,0 -1.107723,-0.522112 -0.388056,-0.529167 -0.388056,-1.432278 0,-0.924279 0.395111,-1.432279 0.395112,-0.508 1.121834,-0.508 0.726723,0 1.100668,0.529167 0.381,0.522111 0.381,1.411112 z m -2.589391,0 q 0,0.754944 0.261056,1.185334 0.268111,0.423333 0.832556,0.423333 0.564445,0 0.825501,-0.423333 0.268111,-0.423334 0.268111,-1.185334 0,-0.726723 -0.254,-1.157112 -0.254,-0.437445 -0.832556,-0.437445 -0.557389,0 -0.832556,0.416278 -0.268112,0.416278 -0.268112,1.178279 z m 6.321777,0 q 0,0.903111 -0.381001,1.432278 -0.381,0.522112 -1.121834,0.522112 -0.712611,0 -1.107723,-0.522112 -0.388055,-0.529167 -0.388055,-1.432278 0,-0.924279 0.395111,-1.432279 0.395111,-0.508 1.121834,-0.508 0.726723,0 1.100667,0.529167 0.381001,0.522111 0.381001,1.411112 z m -2.589391,0 q 0,0.754944 0.261056,1.185334 0.268111,0.423333 0.832556,0.423333 0.564445,0 0.8255,-0.423333 0.268112,-0.423334 0.268112,-1.185334 0,-0.726723 -0.254,-1.157112 -0.254001,-0.437445 -0.832557,-0.437445 -0.557389,0 -0.832556,0.416278 -0.268111,0.416278 -0.268111,1.178279 z m 4.713109,1.95439 q -0.677334,0 -1.037168,-0.486834 -0.352778,-0.486834 -0.352778,-1.425223 0,-0.966612 0.373945,-1.474612 0.373945,-0.508 1.037167,-0.508 0.423334,0 0.691445,0.204611 0.268111,0.204611 0.395111,0.493889 h 0.02822 q -0.0071,-0.162278 -0.02117,-0.331611 -0.0071,-0.176389 -0.0071,-0.317501 v -1.587501 h 0.395112 v 5.362226 h -0.3175 l -0.04939,-0.635 h -0.02822 q -0.134055,0.289278 -0.402166,0.500944 -0.261056,0.204612 -0.705556,0.204612 z m 0.05644,-0.338667 q 0.557389,0 0.804334,-0.381 0.254,-0.388056 0.254,-1.100668 v -0.197556 q 0,-0.740833 -0.246945,-1.135945 -0.246944,-0.395111 -0.790222,-0.395111 -0.522112,0 -0.790223,0.423334 -0.268111,0.423333 -0.268111,1.220611 0,0.762001 0.254,1.164168 0.254,0.402167 0.783167,0.402167 z"
       id="text8"
       aria-label="DreamFood" /></g></svg>
