<?xml version="1.0" encoding="UTF-8" standalone="no"?>
<!-- Created with Inkscape (http://www.inkscape.org/) -->

<svg
   width="44.353168mm"
   height="9.6922903mm"
   viewBox="0 0 44.353168 9.6922903"
   version="1.1"
   id="svg1"
   xml:space="preserve"
   inkscape:version="1.4 (e7c3feb100, 2024-10-09)"
   sodipodi:docname="drawing.svg"
   xmlns:inkscape="http://www.inkscape.org/namespaces/inkscape"
   xmlns:sodipodi="http://sodipodi.sourceforge.net/DTD/sodipodi-0.dtd"
   xmlns="http://www.w3.org/2000/svg"
   xmlns:svg="http://www.w3.org/2000/svg"><sodipodi:namedview
     id="namedview1"
     pagecolor="#ffffff"
     bordercolor="#000000"
     borderopacity="0.25"
     inkscape:showpageshadow="2"
     inkscape:pageopacity="0.0"
     inkscape:pagecheckerboard="0"
     inkscape:deskcolor="#d1d1d1"
     inkscape:document-units="mm"
     showborder="false"
     inkscape:zoom="4.1373683"
     inkscape:cx="143.20698"
     inkscape:cy="164.71824"
     inkscape:window-width="1920"
     inkscape:window-height="1030"
     inkscape:window-x="0"
     inkscape:window-y="0"
     inkscape:window-maximized="1"
     inkscape:current-layer="layer1"><inkscape:page
       x="0"
       y="0"
       width="44.353168"
       height="9.6922903"
       id="page2"
       margin="0"
       bleed="0" /></sodipodi:namedview><defs
     id="defs1" /><g
     inkscape:label="Layer 1"
     inkscape:groupmode="layer"
     id="layer1"
     transform="translate(-17.285089,-51.400921)"><g
       id="g9"
       transform="matrix(0.14210437,0,0,0.14210437,32.471839,50.146839)"
       inkscape:export-filename="logo-text-v2.png"
       inkscape:export-xdpi="171.80283"
       inkscape:export-ydpi="171.80283"><path
         d="m 138.25264,9.7858736 c -2.88399,0.0577 -6.61923,0.7898044 -8.62686,3.8354254 -4.48786,6.80815 0.42581,14.374316 0.42581,14.374316 0,0 1.32269,2.586808 4.21525,4.920118 3.31809,2.67658 7.53731,4.75427 11.3006,4.57181 2.62697,-0.1274 3.07919,-0.25323 5.5609,0.0263 1.44286,0.16255 2.65287,1.50177 3.68298,2.48357 1.02966,0.98137 1.87999,1.60507 1.87999,1.60507 l 7.23522,7.95869 c 0,0 14.7742,16.79091 18.45778,21.80642 3.23884,4.40996 4.79661,4.66845 4.79661,4.66845 0,0 5.49966,0.44753 6.65075,-4.15685 1.15109,-4.60437 -3.38945,-6.7784 -3.38945,-6.7784 -10.22479,-8.30806 -10.31798,-8.18317 -21.75836,-18.23299 -1.90305,-1.67174 -8.71822,-8.26786 -12.12588,-12.1481 -2.75304,-3.13483 4.4286,-15.096777 -14.33401,-24.615552 0,0 -1.72823,-0.3632044 -3.97133,-0.3183274 z m -6.97477,9.3430994 c 0,0 2.57098,6.350164 5.56194,9.450586 3.79166,3.930424 9.31519,5.381064 9.31519,5.381064 0,0 -5.7148,0.99992 -10.71666,-4.114991 -5.14178,-5.257992 -4.16047,-10.716659 -4.16047,-10.716659 z"
         style="opacity:1;fill:#99bc85;fill-opacity:1;stroke-width:0.264583"
         id="path1" /><path
         style="opacity:1;fill:#99bc85;fill-opacity:1;stroke-width:0.264583"
         d="m 145.70294,76.059763 c 0,0 -3.61754,2.3514 -6.96376,-0.90439 -3.34622,-3.25578 -0.54263,-7.0542 -0.54263,-7.0542 l 22.88094,-19.12774 3.84363,4.11495 z"
         id="path4" /><path
         style="opacity:1;fill:#99bc85;fill-opacity:1;stroke-width:0.264583"
         d="m 167.32431,43.293923 3.5492,3.26144 6.90656,-6.90657 c 0,0 2.88691,-1.58203 4.06081,-1.50282 1.6775,0.1132 6.4909,0.15988 6.4909,0.15988 0,0 1.63071,-0.70345 2.71785,-2.01442 1.08715,-1.31096 14.13288,-16.083337 14.13288,-16.083337 0,0 0.2558,-1.662692 -0.2558,-1.758617 -0.5116,-0.09592 -0.41567,-0.863319 -2.11034,-0.09592 -1.69467,0.767398 -15.18805,15.156064 -15.18805,15.156064 0,0 -1.50281,0.95925 -2.04639,0.15988 -0.54357,-0.79937 -1.63311,-1.36846 -0.22382,-2.74984 10.15907,-9.957894 9.20344,-8.758732 15.16967,-15.243754 0.60656,-0.6593 -0.16418,-1.878782 -0.17347,-1.894752 -0.51112,-0.879055 -2.0112,-0.343962 -2.0112,-0.343962 l -15.19126,15.116338 c 0,0 -1.47084,1.37492 -2.27022,0.511595 -0.79937,-0.863319 -0.73542,-1.726639 -0.73542,-1.726639 0,0 0.5116,-1.342943 0.83135,-1.374918 0.31975,-0.03198 14.8683,-14.80435 14.8683,-14.80435 0,0 0.47962,-1.6626894 -0.0959,-1.8865134 -0.57555,-0.223825 -1.59874,-0.447649 -1.59874,-0.447649 L 178.3876,22.382383 c 0,0 -2.68589,2.430087 -2.55799,2.909711 0.1279,0.479623 -0.032,7.801859 -0.032,7.801859 0,0 -0.83135,3.00563 -1.53479,3.29341 -0.70345,0.28777 -6.93854,6.90656 -6.93854,6.90656 z"
         id="path9"
         sodipodi:nodetypes="cccscscsscssssccscscsccscscc" /></g><path
       style="font-size:7.05556px;font-family:'Winky Sans';-inkscape-font-specification:'Winky Sans, @wght=500';font-variation-settings:'wght' 500;fill:#99bc85;stroke-width:0.264583"
       d="m 18.119235,61.036659 q -0.119945,0 -0.23989,-0.04939 -0.112888,-0.05645 -0.183444,-0.148167 -0.07056,-0.09878 -0.0635,-0.225778 0.03528,-0.613834 0.04939,-1.199445 0.01411,-0.585612 0.0071,-1.171223 -0.0071,-0.585612 -0.03528,-1.19239 -0.0071,-0.04939 -0.05645,-0.0635 -0.04233,-0.02117 -0.105833,-0.03528 -0.0635,-0.01411 -0.119945,-0.05644 -0.05644,-0.04939 -0.07761,-0.155222 -0.02822,-0.155223 0.03528,-0.246945 0.07056,-0.09172 0.1905,-0.141111 0.127,-0.04939 0.246945,-0.07056 0.148166,-0.02822 0.366889,-0.04233 0.218722,-0.02117 0.522111,-0.02822 0.310445,-0.0071 0.705556,-0.0071 0.853723,0 1.305279,0.585612 0.458611,0.578555 0.458611,1.76389 0,0.783167 -0.246944,1.340556 -0.246945,0.557389 -0.691445,0.853723 -0.437445,0.289278 -1.00189,0.289278 z m 0.359833,-0.867834 q -0.0071,0.04233 0.01411,0.07055 0.02822,0.02117 0.0635,0.02117 h 0.627945 q 0.324556,0 0.5715,-0.176389 0.246945,-0.183444 0.381001,-0.557389 0.141111,-0.381 0.141111,-0.973667 0,-0.599723 -0.09878,-0.93839 -0.09172,-0.338667 -0.296333,-0.472722 -0.197556,-0.141112 -0.522112,-0.141112 h -0.783167 q -0.04233,0 -0.0635,0.02822 -0.01411,0.02117 -0.02117,0.07056 -0.0071,0.04233 -0.0071,0.09878 0.02822,0.479778 0.03528,0.966612 0.01411,0.486833 0,0.987778 -0.0071,0.500945 -0.04233,1.016001 z m 3.732386,0.924278 q -0.127,0 -0.246944,-0.05644 -0.112889,-0.04939 -0.183445,-0.141111 -0.0635,-0.09878 -0.05644,-0.225778 0.03528,-0.486834 0.04233,-0.973668 0.01411,-0.486833 0,-0.973667 -0.0071,-0.486834 -0.04233,-0.973667 -0.01411,-0.148167 0.105833,-0.225778 0.127,-0.08467 0.275167,-0.08467 0.127,0 0.1905,0.05645 0.0635,0.04939 0.09878,0.155222 0.02117,0.07055 0.04939,0.119944 0.02822,0.04233 0.07761,0.03528 0.04233,-0.0071 0.119945,-0.07055 0.08467,-0.07056 0.211666,-0.148167 0.134056,-0.07761 0.30339,-0.141111 0.176389,-0.0635 0.402166,-0.0635 0.0635,0 0.119945,0.0071 0.05644,0 0.105833,0.0071 0.155223,0.02117 0.239889,0.148166 0.09172,0.127001 0.01411,0.338667 -0.02822,0.09172 -0.105834,0.176389 -0.07761,0.07761 -0.169333,0.105834 -0.09172,0.02822 -0.176389,-0.02822 -0.04233,-0.02822 -0.09878,-0.05644 -0.05645,-0.02822 -0.105834,-0.02822 -0.183444,0 -0.352778,0.127 -0.169333,0.127 -0.282222,0.331611 -0.105833,0.197556 -0.105833,0.423334 0,0.296333 0,0.585611 0.0071,0.289278 0.02117,0.571501 0.01411,0.282222 0.04939,0.578556 0.01411,0.127 -0.05644,0.225778 -0.0635,0.09172 -0.183445,0.141111 -0.119944,0.05644 -0.261056,0.05644 z m 3.746508,0 q -0.4445,0 -0.740834,-0.155222 -0.289278,-0.162278 -0.465667,-0.416278 -0.169333,-0.254 -0.239889,-0.550334 -0.07056,-0.296333 -0.07056,-0.557389 v -0.176389 q 0,-0.282223 0.07056,-0.599723 0.07056,-0.324555 0.239889,-0.606778 0.176389,-0.289278 0.465667,-0.465667 0.296334,-0.183444 0.740834,-0.183444 0.409222,0 0.663222,0.119944 0.261056,0.119945 0.402167,0.303389 0.148167,0.183445 0.204612,0.373945 0.05644,0.1905 0.05644,0.338667 0,0.275167 -0.127,0.451556 -0.127,0.176389 -0.345722,0.275166 -0.211667,0.09878 -0.465667,0.155223 -0.254001,0.04939 -0.515056,0.0635 -0.254,0.01411 -0.465667,0.01411 -0.0635,0.0071 -0.09172,0.03528 -0.02822,0.02822 -0.02822,0.07055 0.0071,0.254001 0.07056,0.444501 0.07056,0.183444 0.225778,0.289278 0.155222,0.105833 0.416278,0.105833 0.211667,0 0.373945,-0.09878 0.169333,-0.105833 0.289277,-0.141111 0.09878,-0.03528 0.197556,0.0071 0.09878,0.04233 0.176389,0.134055 0.07761,0.08467 0.09878,0.183445 0.04939,0.183444 -0.01411,0.268111 -0.05645,0.07761 -0.112889,0.105833 -0.119945,0.04939 -0.395111,0.127 -0.275167,0.08467 -0.613834,0.08467 z m -0.599723,-2.194279 q 0.62089,-0.0071 0.853723,-0.09878 0.232833,-0.09878 0.225778,-0.296333 -0.0071,-0.148167 -0.05645,-0.268112 -0.04939,-0.119944 -0.155222,-0.1905 -0.105833,-0.07761 -0.268111,-0.07761 -0.254,0 -0.409223,0.112889 -0.155222,0.112889 -0.225778,0.303389 -0.07055,0.183445 -0.07761,0.430389 0,0.03528 0.03528,0.0635 0.03528,0.02117 0.07761,0.02117 z m 3.647721,2.194279 q -0.606778,0 -0.867834,-0.430389 -0.261055,-0.437445 -0.261055,-1.248834 v -0.176389 q 0,-0.282223 0.07055,-0.599723 0.07056,-0.324555 0.239889,-0.606778 0.176389,-0.289278 0.465667,-0.465667 0.296334,-0.183444 0.740834,-0.183444 0.345723,0 0.599723,0.05644 0.254,0.04939 0.458611,0.127 0.162278,0.05645 0.282222,0.176389 0.119945,0.112889 0.105834,0.289278 -0.02822,0.345723 -0.04233,0.719667 -0.0071,0.366889 -0.0071,0.726723 0,0.359834 0.0071,0.677334 0.01411,0.310444 0.04233,0.550333 0.01411,0.148167 -0.112889,0.232834 -0.119945,0.08467 -0.268111,0.08467 -0.112889,0 -0.176389,-0.04939 -0.05645,-0.05645 -0.09172,-0.162278 -0.02117,-0.08467 -0.04939,-0.127 -0.02822,-0.04939 -0.07761,-0.04939 -0.04233,0 -0.119944,0.07055 -0.07761,0.07056 -0.204611,0.162278 -0.119945,0.08467 -0.30339,0.155223 -0.183444,0.07055 -0.430389,0.07055 z m 0.176389,-0.740834 q 0.183445,0 0.345723,-0.09878 0.169333,-0.105834 0.282222,-0.275167 0.112889,-0.176389 0.112889,-0.388056 0,-0.232834 0.0071,-0.451556 0.01411,-0.225778 0.02117,-0.4445 0.01411,-0.225778 0.02822,-0.458612 0.01411,-0.127 -0.07056,-0.134055 -0.07761,-0.01411 -0.218722,-0.02822 -0.134056,-0.02117 -0.296334,-0.02117 -0.218722,0 -0.352778,0.119944 -0.134056,0.112889 -0.204611,0.303389 -0.07056,0.183445 -0.09172,0.388056 -0.02117,0.204611 -0.02117,0.373945 v 0.176389 q 0,0.472722 0.09172,0.705556 0.09878,0.232833 0.366889,0.232833 z m 2.935115,0.740834 q -0.134056,0 -0.254,-0.05644 -0.119945,-0.04939 -0.190501,-0.141111 -0.0635,-0.09878 -0.05644,-0.225778 0.03528,-0.486834 0.04233,-0.973668 0.01411,-0.486833 0,-0.973667 -0.0071,-0.486834 -0.04233,-0.973667 -0.01411,-0.148167 0.112889,-0.225778 0.127,-0.08467 0.289278,-0.08467 0.112889,0 0.169333,0.05645 0.05645,0.05644 0.08467,0.155222 0.01411,0.07055 0.04233,0.134056 0.03528,0.05644 0.08467,0.05644 0.04233,0 0.119945,-0.07056 0.08467,-0.07055 0.211666,-0.155222 0.134056,-0.09172 0.310445,-0.162278 0.176389,-0.07055 0.409223,-0.07055 0.289278,0 0.486833,0.08467 0.197556,0.08467 0.3175,0.246945 0.04939,0.05644 0.09172,0.09172 0.04233,0.02822 0.09172,0.01411 0.05644,-0.0071 0.141111,-0.07761 0.09172,-0.07055 0.218723,-0.148167 0.127,-0.08467 0.303389,-0.148166 0.176389,-0.0635 0.395111,-0.0635 0.599723,0 0.860778,0.366889 0.268112,0.359833 0.268112,1.185334 0,0.296333 0,0.585611 0.0071,0.289278 0.02117,0.571501 0.01411,0.282222 0.04939,0.578556 0.01411,0.127 -0.05644,0.225778 -0.0635,0.09172 -0.183445,0.141111 -0.112889,0.05644 -0.246944,0.05644 -0.134056,0 -0.261056,-0.05644 -0.119945,-0.04939 -0.1905,-0.141111 -0.0635,-0.09878 -0.04939,-0.225778 0.03528,-0.296334 0.04939,-0.578556 0.01411,-0.282223 0.01411,-0.571501 0.0071,-0.289278 0.0071,-0.585611 0,-0.493889 -0.105833,-0.68439 -0.09878,-0.197555 -0.352778,-0.197555 -0.183445,0 -0.352778,0.127 -0.169333,0.127 -0.282222,0.331611 -0.105834,0.197556 -0.105834,0.423334 0,0.296333 0,0.585611 0.0071,0.289278 0.02117,0.571501 0.01411,0.282222 0.04939,0.578556 0.01411,0.127 -0.05645,0.225778 -0.0635,0.09172 -0.183444,0.141111 -0.112889,0.05644 -0.246945,0.05644 -0.134055,0 -0.261056,-0.05644 -0.119944,-0.04939 -0.1905,-0.141111 -0.0635,-0.09878 -0.04939,-0.225778 0.03528,-0.296334 0.04939,-0.578556 0.01411,-0.282223 0.01411,-0.571501 0.0071,-0.289278 0.0071,-0.585611 0,-0.493889 -0.105833,-0.68439 -0.09878,-0.197555 -0.352778,-0.197555 -0.183445,0 -0.352778,0.127 -0.169334,0.127 -0.282223,0.331611 -0.105833,0.197556 -0.105833,0.423334 0,0.296333 0,0.585611 0.0071,0.289278 0.02117,0.571501 0.01411,0.282222 0.04939,0.578556 0.01411,0.127 -0.05644,0.225778 -0.0635,0.09172 -0.183445,0.141111 -0.112889,0.05644 -0.246944,0.05644 z m 8.283227,-4.473225 q 0,0.169334 -0.09878,0.303389 -0.09172,0.127 -0.254,0.112889 -0.282223,-0.03528 -0.564445,-0.04939 -0.275167,-0.01411 -0.557389,-0.01411 -0.282223,-0.0071 -0.571501,-0.0071 -0.05644,0 -0.07761,0.03528 -0.02117,0.03528 -0.02117,0.07761 0.02822,0.190501 0.03528,0.373945 0.01411,0.176389 0.01411,0.352778 0,0.176389 0.0071,0.359834 0,0.03528 0.01411,0.0635 0.02117,0.02117 0.0635,0.02117 0.310445,0 0.649112,-0.0071 0.338667,-0.01411 0.684389,-0.0635 0.119945,-0.01411 0.197556,0.04939 0.07761,0.05644 0.119944,0.162278 0.04233,0.09878 0.04233,0.218722 0,0.162278 -0.09172,0.254 -0.09172,0.09172 -0.254,0.09172 -0.352778,0 -0.691445,0.0071 -0.331611,0.0071 -0.656167,0.05644 -0.02822,0.0071 -0.04939,0.02822 -0.02117,0.01411 -0.02117,0.05644 0,0.275167 0,0.529167 0.0071,0.246945 0.02117,0.500945 0.01411,0.254 0.04939,0.550334 0.02117,0.162278 -0.134055,0.261055 -0.155223,0.09172 -0.437445,0.09172 -0.162278,0 -0.296334,-0.09172 -0.127,-0.09172 -0.119944,-0.254 0.03528,-0.691445 0.04233,-1.361723 0.01411,-0.677334 0,-1.354667 -0.0071,-0.677334 -0.04233,-1.368779 -0.0071,-0.162278 0.119944,-0.254 0.134056,-0.09172 0.296334,-0.09172 h 2.236612 q 0.162278,0 0.254001,0.09878 0.09172,0.09172 0.09172,0.261056 z m 3.492503,2.794002 q 0,0.261056 -0.07056,0.557389 -0.07056,0.296334 -0.246945,0.550334 -0.169333,0.254 -0.465667,0.416278 -0.289278,0.155222 -0.733778,0.155222 -0.4445,0 -0.740834,-0.155222 -0.289278,-0.162278 -0.465667,-0.416278 -0.169333,-0.254 -0.239889,-0.550334 -0.07056,-0.296333 -0.07056,-0.557389 v -0.176389 q 0,-0.282223 0.07056,-0.599723 0.07056,-0.324555 0.239889,-0.606778 0.176389,-0.289278 0.465667,-0.465667 0.296334,-0.183444 0.740834,-0.183444 0.4445,0 0.733778,0.183444 0.296334,0.176389 0.465667,0.465667 0.176389,0.282223 0.246945,0.606778 0.07056,0.3175 0.07056,0.599723 z m -0.846668,-0.176389 q 0,-0.183445 -0.02822,-0.381 -0.02822,-0.204612 -0.09878,-0.388056 -0.07055,-0.183445 -0.204611,-0.296334 -0.127,-0.119944 -0.338667,-0.119944 -0.211667,0 -0.345722,0.119944 -0.127,0.112889 -0.197556,0.296334 -0.07056,0.183444 -0.09878,0.388056 -0.02822,0.197555 -0.02822,0.381 v 0.176389 q 0,0.148167 0.02822,0.310445 0.02822,0.155222 0.09878,0.303389 0.07056,0.141111 0.197556,0.232833 0.134055,0.09172 0.345722,0.09172 0.211667,0 0.338667,-0.09172 0.134056,-0.09172 0.204611,-0.232833 0.07056,-0.148167 0.09878,-0.303389 0.02822,-0.162278 0.02822,-0.310445 z m 4.473224,0.176389 q 0,0.261056 -0.07056,0.557389 -0.07055,0.296334 -0.246944,0.550334 -0.169334,0.254 -0.465667,0.416278 -0.289278,0.155222 -0.733778,0.155222 -0.444501,0 -0.740834,-0.155222 -0.289278,-0.162278 -0.465667,-0.416278 -0.169334,-0.254 -0.239889,-0.550334 -0.07056,-0.296333 -0.07056,-0.557389 v -0.176389 q 0,-0.282223 0.07056,-0.599723 0.07055,-0.324555 0.239889,-0.606778 0.176389,-0.289278 0.465667,-0.465667 0.296333,-0.183444 0.740834,-0.183444 0.4445,0 0.733778,0.183444 0.296333,0.176389 0.465667,0.465667 0.176389,0.282223 0.246944,0.606778 0.07056,0.3175 0.07056,0.599723 z m -0.846667,-0.176389 q 0,-0.183445 -0.02822,-0.381 -0.02822,-0.204612 -0.09878,-0.388056 -0.07056,-0.183445 -0.204612,-0.296334 -0.127,-0.119944 -0.338666,-0.119944 -0.211667,0 -0.345723,0.119944 -0.127,0.112889 -0.197556,0.296334 -0.07055,0.183444 -0.09878,0.388056 -0.02822,0.197555 -0.02822,0.381 v 0.176389 q 0,0.148167 0.02822,0.310445 0.02822,0.155222 0.09878,0.303389 0.07056,0.141111 0.197556,0.232833 0.134056,0.09172 0.345723,0.09172 0.211666,0 0.338666,-0.09172 0.134056,-0.09172 0.204612,-0.232833 0.07055,-0.148167 0.09878,-0.303389 0.02822,-0.162278 0.02822,-0.310445 z m 2.568224,1.855612 q -0.606778,0 -0.867834,-0.430389 -0.261056,-0.437445 -0.261056,-1.248834 v -0.176389 q 0,-0.282223 0.07056,-0.599723 0.07056,-0.324555 0.239889,-0.606778 0.176389,-0.289278 0.465667,-0.465667 0.296334,-0.183444 0.740834,-0.183444 0.141111,0 0.254,0.01411 0.119945,0.01411 0.176389,0.02822 0.09878,0.01411 0.09878,-0.08467 v -0.9525 q 0,-0.190501 0.112889,-0.303389 0.112889,-0.112889 0.303389,-0.112889 0.141111,0 0.254,0.05644 0.119945,0.04939 0.183445,0.141111 0.07055,0.09172 0.0635,0.225778 -0.07056,1.227668 -0.09172,2.088446 -0.01411,0.853723 0.02117,1.38289 0.03528,0.529167 0.134056,0.797278 0.04939,0.134056 -0.04233,0.268111 -0.09172,0.127 -0.310444,0.127 -0.204612,0 -0.282223,-0.07055 -0.07055,-0.07056 -0.09878,-0.176389 -0.01411,-0.07761 -0.05644,-0.112889 -0.03528,-0.03528 -0.08467,-0.02117 -0.04233,0.0071 -0.127,0.07056 -0.07761,0.0635 -0.204611,0.148167 -0.127,0.07761 -0.303389,0.134055 -0.169334,0.0635 -0.388056,0.0635 z m 0.176389,-0.740834 q 0.1905,0 0.352778,-0.105833 0.169334,-0.112889 0.275167,-0.296334 0.112889,-0.183444 0.112889,-0.409222 v -1.361723 q 0,-0.09172 -0.07761,-0.09172 -0.05645,-0.01411 -0.176389,-0.02822 -0.119945,-0.02117 -0.275167,-0.02117 -0.218723,0 -0.352778,0.112889 -0.134056,0.112889 -0.204611,0.296333 -0.07056,0.183445 -0.09172,0.395112 -0.02117,0.204611 -0.02117,0.395111 v 0.176389 q 0,0.486834 0.09878,0.712611 0.09878,0.225778 0.359834,0.225778 z"
       id="text9"
       aria-label="DreamFood" /></g></svg>
